HIERARCHY
ROOT hip
{
  OFFSET 0 0 0
  CHANNELS 6 Xposition Yposition Zposition Zrotation Yrotation Xrotation
  JOINT abdomen
  {
    OFFSET 0 20.6881 -0.73152
    CHANNELS 3 Zrotation Xrotation Yrotation
    JOINT chest
    {
      OFFSET 0 11.7043 -0.48768
      CHANNELS 3 Zrotation Xrotation Yrotation
      JOINT neck
      {
        OFFSET 0 22.1894 -2.19456
        CHANNELS 3 Zrotation Xrotation Yrotation
        JOINT head
        {
          OFFSET -0.24384 7.07133 1.2192
          CHANNELS 3 Zrotation Xrotation Yrotation
          JOINT leftEye
          {
            OFFSET 4.14528 8.04674 8.04672
            CHANNELS 3 Zrotation Xrotation Yrotation
            End Site
            {
              OFFSET 1 0 0
            }
          }
          JOINT rightEye
          {
            OFFSET -3.6576 8.04674 8.04672
            CHANNELS 3 Zrotation Xrotation Yrotation
            End Site
            {
              OFFSET 1 0 0
            }
          }
        }
      }
      JOINT rCollar
      {
        OFFSET -2.68224 19.2634 -4.8768
        CHANNELS 3 Zrotation Xrotation Yrotation
        JOINT rShldr
        {
          OFFSET -8.77824 -1.95073 1.46304
          CHANNELS 3 Zrotation Xrotation Yrotation
          JOINT rForeArm
          {
            OFFSET -28.1742 -1.7115 0.48768
            CHANNELS 3 Zrotation Xrotation Yrotation
            JOINT rHand
            {
              OFFSET -22.5879 0.773209 7.07136
              CHANNELS 3 Zrotation Xrotation Yrotation
              JOINT rThumb1
              {
                OFFSET -1.2192 -0.487915 3.41376
                CHANNELS 3 Zrotation Xrotation Yrotation
                JOINT rThumb2
                {
                  OFFSET -3.37035 -0.52449 3.41376
                  CHANNELS 3 Zrotation Xrotation Yrotation
                  End Site
                  {
                    OFFSET -1.78271 -1.18214 1.43049
                  }
                }
              }
              JOINT rIndex1
              {
                OFFSET -7.75947 0.938293 5.60832
                CHANNELS 3 Zrotation Xrotation Yrotation
                JOINT rIndex2
                {
                  OFFSET -2.54057 -0.884171 1.56538
                  CHANNELS 3 Zrotation Xrotation Yrotation
                  End Site
                  {
                    OFFSET -1.62519 -0.234802 1.16502
                  }
                }
              }
              JOINT rMid1
              {
                OFFSET -8.24714 1.18213 3.41376
                CHANNELS 3 Zrotation Xrotation Yrotation
                JOINT rMid2
                {
                  OFFSET -3.10165 -0.590103 1.0647
                  CHANNELS 3 Zrotation Xrotation Yrotation
                  End Site
                  {
                    OFFSET -2.48547 -0.328903 0.83742
                  }
                }
              }
              JOINT rRing1
              {
                OFFSET -8.82822 0.546677 1.51678
                CHANNELS 3 Zrotation Xrotation Yrotation
                JOINT rRing2
                {
                  OFFSET -2.60934 -0.819778 -0.0198488
                  CHANNELS 3 Zrotation Xrotation Yrotation
                  End Site
                  {
                    OFFSET -2.33842 -0.294052 0.168128
                  }
                }
              }
              JOINT rPinky1
              {
                OFFSET -8.27202 -0.0477905 -0.4584
                CHANNELS 3 Zrotation Xrotation Yrotation
                JOINT rPinky2
                {
                  OFFSET -1.82734 -0.647385 -0.700984
                  CHANNELS 3 Zrotation Xrotation Yrotation
                  End Site
                  {
                    OFFSET -1.69225 -0.51767 -0.607171
                  }
                }
              }
            }
          }
        }
      }
      JOINT lCollar
      {
        OFFSET 2.68224 19.2634 -4.8768
        CHANNELS 3 Zrotation Xrotation Yrotation
        JOINT lShldr
        {
          OFFSET 8.77824 -1.95073 1.46304
          CHANNELS 3 Zrotation Xrotation Yrotation
          JOINT lForeArm
          {
            OFFSET 28.1742 -1.7115 0.48768
            CHANNELS 3 Zrotation Xrotation Yrotation
            JOINT lHand
            {
              OFFSET 22.5879 0.773209 7.07136
              CHANNELS 3 Zrotation Xrotation Yrotation
              JOINT lThumb1
              {
                OFFSET 1.2192 -0.487915 3.41376
                CHANNELS 3 Zrotation Xrotation Yrotation
                JOINT lThumb2
                {
                  OFFSET 3.37035 -0.52449 3.41376
                  CHANNELS 3 Zrotation Xrotation Yrotation
                  End Site
                  {
                    OFFSET 1.78271 -1.18214 1.43049
                  }
                }
              }
              JOINT lIndex1
              {
                OFFSET 7.75947 0.938293 5.60832
                CHANNELS 3 Zrotation Xrotation Yrotation
                JOINT lIndex2
                {
                  OFFSET 2.54057 -0.884171 1.56538
                  CHANNELS 3 Zrotation Xrotation Yrotation
                  End Site
                  {
                    OFFSET 1.62519 -0.234802 1.16502
                  }
                }
              }
              JOINT lMid1
              {
                OFFSET 8.24714 1.18213 3.41376
                CHANNELS 3 Zrotation Xrotation Yrotation
                JOINT lMid2
                {
                  OFFSET 3.10165 -0.590103 1.0647
                  CHANNELS 3 Zrotation Xrotation Yrotation
                  End Site
                  {
                    OFFSET 2.48547 -0.328903 0.83742
                  }
                }
              }
              JOINT lRing1
              {
                OFFSET 8.82822 0.546677 1.51678
                CHANNELS 3 Zrotation Xrotation Yrotation
                JOINT lRing2
                {
                  OFFSET 2.60934 -0.819778 -0.0198488
                  CHANNELS 3 Zrotation Xrotation Yrotation
                  End Site
                  {
                    OFFSET 2.33842 -0.294052 0.168128
                  }
                }
              }
              JOINT lPinky1
              {
                OFFSET 8.27202 -0.0477905 -0.4584
                CHANNELS 3 Zrotation Xrotation Yrotation
                JOINT lPinky2
                {
                  OFFSET 1.82734 -0.647385 -0.700984
                  CHANNELS 3 Zrotation Xrotation Yrotation
                  End Site
                  {
                    OFFSET 1.69225 -0.51767 -0.607171
                  }
                }
              }
            }
          }
        }
      }
    }
  }
  JOINT rButtock
  {
    OFFSET -8.77824 4.35084 1.2192
    CHANNELS 3 Zrotation Xrotation Yrotation
    JOINT rThigh
    {
      OFFSET 0 -1.70687 -2.19456
      CHANNELS 3 Zrotation Xrotation Yrotation
      JOINT rShin
      {
        OFFSET 0 -36.8199 0.73152
        CHANNELS 3 Zrotation Xrotation Yrotation
        JOINT rFoot
        {
          OFFSET 0.73152 -45.1104 -5.12064
          CHANNELS 3 Zrotation Xrotation Yrotation
          End Site
          {
            OFFSET -1.1221 -3.69964 12.103
          }
        }
      }
    }
  }
  JOINT lButtock
  {
    OFFSET 8.77824 4.35084 1.2192
    CHANNELS 3 Zrotation Xrotation Yrotation
    JOINT lThigh
    {
      OFFSET 0 -1.70687 -2.19456
      CHANNELS 3 Zrotation Xrotation Yrotation
      JOINT lShin
      {
        OFFSET 0 -36.8199 0.73152
        CHANNELS 3 Zrotation Xrotation Yrotation
        JOINT lFoot
        {
          OFFSET -0.73152 -45.1104 -5.12064
          CHANNELS 3 Zrotation Xrotation Yrotation
          End Site
          {
            OFFSET 1.1221 -3.69964 12.103
          }
        }
      }
    }
  }
}
MOTION
Frames:	4
Frame Time:	0.03333
0.0 0.0 0.0 0.0 0.0 0.0 0.0 0.0 0.0 0.0 0.0 0.0 0.0 0.0 0.0 0.0 0.0 0.0 0.0 0.0 0.0 0.0 0.0 0.0 0.0 0.0 0.0 0.0 0.0 0.0 0.0 0.0 0.0 0.0 0.0 0.0 0.0 0.0 0.0 0.0 0.0 0.0 0.0 0.0 0.0 0.0 0.0 0.0 0.0 0.0 0.0 0.0 0.0 0.0 0.0 0.0 0.0 0.0 0.0 0.0 0.0 0.0 0.0 0.0 0.0 0.0 0.0 0.0 0.0 0.0 0.0 0.0 0.0 0.0 0.0 0.0 0.0 0.0 0.0 0.0 0.0 0.0 0.0 0.0 0.0 0.0 0.0 0.0 0.0 0.0 0.0 0.0 0.0 0.0 0.0 0.0 0.0 0.0 0.0 0.0 0.0 0.0 0.0 0.0 0.0 0.0 0.0 0.0 0.0 0.0 0.0 0.0 0.0 0.0 0.0 0.0 0.0 0.0 0.0 0.0 0.0 0.0 0.0 0.0 0.0 0.0 0.0 0.0 0.0 0.0 0.0 0.0
0.19569999999999999 -1.162 4.960500000000001 -70.589599 -74.164308 130.339602 151.51904 5.658918 -92.058135 149.977959 63.656097 38.766816 159.767047 49.473543 -65.45229 105.982486 -61.042688 -122.612737 149.051574 -15.160991 51.348895 10.406335 6.341596 62.627871 95.448292 -36.881227 -78.292193 132.975887 43.375046 21.683162 -178.61137 -35.426061 -96.282885 -15.190525 -51.737171 150.915236 8.265014 -2.501672 108.980292 -117.681684 31.087237 -10.504853 -5.264432 44.972913 134.501073 -65.844473 -72.031885 -169.120377 -22.734014 63.83 -44.806275 -141.313376 -62.346778 75.554875 -99.874953 -18.758904 -104.418187 31.903662 -4.050727 146.144168 -4.217139 14.209583 168.505908 -101.436714 20.945136 -78.638322 -146.582624 9.398461 115.085954 -53.962452 60.610163 -143.989978 136.81122 72.952655 150.378518 39.232608 3.422419 -137.878513 131.019113 84.253098 -18.421255 -38.8426 -18.56325 -116.82405 82.839868 -41.389618 -153.942944 1.058625 -40.076092 135.988318 46.156579 -68.316532 67.638037 30.198995 30.546591 -121.478385 -25.736538 -12.507362 173.327373 119.32686 18.720107 -38.624008 8.680497 -67.809092 122.06013 149.798721 19.889761 61.475338 173.052905 -65.772745 77.363991 -152.123277 11.911549 -104.18041 109.802993 -5.46093 76.351752 141.738736 65.014026 -130.473138 -71.448596 4.580176 81.645675 -67.434661 30.773969 137.422547 170.308309 26.159288 -4.456539 -50.900711 44.522815 -21.877206
0.3228 -1.161 7.143199999999999 -79.667334 -74.893834 138.084926 155.317126 8.003808 -70.12632 121.662477 46.14703 74.553457 171.587176 41.54314 -52.514252 134.232214 -80.001103 -89.192705 142.645097 -15.225802 43.146384 10.954085 6.940713 64.62353 152.594248 5.086812 -49.078307 -69.067576 -58.769954 89.176522 -11.527922 60.462637 99.856666 -16.46846 -62.890971 147.522926 8.702327 -17.004766 110.814274 139.555408 -17.900077 147.463914 137.986763 -16.107635 -40.0342 -147.693881 66.912017 87.20374 165.029608 -30.953408 -163.586767 165.2915 -61.467715 -129.626145 72.308949 53.658859 -66.664439 -45.740528 66.141217 -130.756339 -52.753885 -70.415601 171.272503 -68.946027 22.594574 -173.421299 46.085384 16.575254 78.673039 69.518694 63.070012 102.787119 34.297478 -59.935906 -39.476222 37.505375 -1.565866 -132.297283 -119.885111 84.489072 -128.631392 59.660874 -86.209958 -53.897925 77.484026 12.292303 -135.306675 171.882352 3.824841 136.348562 157.495199 -48.99322 -177.891434 -121.278513 81.618878 39.310164 -162.014603 53.771284 -18.390381 52.844081 -47.318054 175.667792 -116.379069 -25.796759 -24.990127 -59.096157 -42.159471 19.099385 59.669988 -5.391998 -122.019803 -34.354422 -58.857749 -122.070639 108.394321 11.312687 116.694169 -28.376261 -3.192169 110.800338 -179.345604 7.031546 -86.450509 63.271658 33.110018 127.913062 -144.274133 0.062852 58.98741 -162.339872 56.213956 -146.078618
0.3908 -1.188 9.2263 -87.027322 -74.866381 145.371306 157.917112 8.332629 -101.04309 150.280987 67.710549 40.606414 176.711726 43.276321 -77.699183 108.306638 -59.037239 -120.115425 136.991979 -14.740066 36.349533 12.328572 7.966057 65.618928 -43.741766 47.024877 -140.707405 161.007396 -42.169384 -72.119482 -170.583723 22.545666 -96.282482 -16.068919 -62.428341 148.997162 22.796364 8.286783 109.26639 -115.351811 -1.678387 -11.415628 137.551607 -19.164291 -42.634236 -157.814528 55.413041 105.515594 -131.91563 -56.552861 -105.047815 -71.53745 4.15531 -87.239511 -87.393168 -22.075275 -99.639472 42.079752 -3.118274 152.547262 38.83298 41.443954 130.640149 -86.409734 10.691875 -26.619754 73.664215 6.748291 76.621584 117.841622 56.809341 51.388126 -174.733925 72.183603 -76.019783 151.396714 -31.122734 69.786441 62.465233 71.763994 48.882644 -177.965991 -47.178486 13.018474 68.574739 -69.266536 -168.815698 4.737248 -57.285258 165.295201 14.391451 60.510894 3.813823 75.906201 72.981841 25.354618 -62.84747 -62.766703 124.913784 79.798501 12.834806 17.715728 38.504638 -57.405761 159.919228 34.43214 32.375248 51.195767 169.39292 -49.488758 88.589765 -176.212248 12.115978 134.476166 -109.810904 54.324695 -147.977006 70.190921 20.323096 -132.677166 178.363678 11.945147 -91.235654 70.346909 40.973751 31.107426 -177.402634 -31.729317 42.329315 128.945865 5.345599 -60.263105
